<!DOCTYPE svg PUBLIC "-//W3C//DTD SVG 1.1//EN" "http://www.w3.org/Graphics/SVG/1.1/DTD/svg11.dtd">
<!-- Uploaded to: SVG Repo, www.svgrepo.com, Transformed by: SVG Repo Mixer Tools -->
<svg width="800px" height="800px" viewBox="-2.4 -2.4 28.80 28.80" fill="none" xmlns="http://www.w3.org/2000/svg">
<g id="SVGRepo_bgCarrier" stroke-width="0" transform="translate(7.32,7.32), scale(0.39)">
<rect x="-2.4" y="-2.4" width="28.80" height="28.80" rx="0" fill="#fff" strokewidth="0"/>
</g>
<g id="SVGRepo_tracerCarrier" stroke-linecap="round" stroke-linejoin="round"/>
<g id="SVGRepo_iconCarrier">
<path fill-rule="evenodd" clip-rule="evenodd" d="M5.4 3h13.2A2.4 2.4 0 0 1 21 5.4v13.2a2.4 2.4 0 0 1-2.4 2.4H5.4A2.4 2.4 0 0 1 3 18.6V5.4A2.4 2.4 0 0 1 5.4 3Zm5.893 4.293a1 1 0 0 1 1.414 0l4 4a1 1 0 0 1-1.414 1.414L13 10.414V16a1 1 0 1 1-2 0v-5.586l-2.293 2.293a1 1 0 0 1-1.414-1.414l4-4Z" fill="#000"/>
</g>
</svg>